# xmcd
#
# Track frame offsets: 
#        182
#        21907
#        36630
#        53867
#        71632
#        90002
#        105402
#        118852
#        133957
#        157945
#        175032
#        192570
#
# Disc length: 3127 seconds
#
# Revision: 4
# Processed by: cddbd v1.5.2PL0 Copyright (c) Steve Scherf et al.
# Submitted via: ExactAudioCopy v0.95b4
#
DISCID=a20c350c
DTITLE=Crash - To be or not to be
DYEAR=1995
DGENRE=Thrash Metal
TTITLE0=Machine of silence
TTITLE1=Declaration of the absurd
TTITLE2=Turn to dust
TTITLE3=The cipher
TTITLE4=Shadows of isolation
TTITLE5=Hate breed
TTITLE6=In process of ...
TTITLE7=The addiction cobspiracy
TTITLE8=Reality discord
TTITLE9=내가 그린 원 안에서
TTITLE10=My worst enemy(War Mix)
TTITLE11=Dead point
EXTD=
EXTT0=
EXTT1=
EXTT2=
EXTT3=
EXTT4=
EXTT5=
EXTT6=
EXTT7=
EXTT8=
EXTT9=
EXTT10=
EXTT11=
PLAYORDER=
